{
  "accessors": [
    {
      "bufferView": 2,
      "componentType": 5126,
      "count": 674,
      "max": [
        0.26754599809646606,
        -0.18469800055027008,
        1.0310150384902954
      ],
      "min": [
        -0.26754599809646606,
        -0.3244769871234894,
        0.8649089932441711
      ],
      "type": "VEC3"
    },
    {
      "bufferView": 2,
      "byteOffset": 8088,
      "componentType": 5126,
      "count": 674,
      "max": [
        0.9982314109802246,
        0.6291077733039856,
        0.9987453818321228
      ],
      "min": [
        -0.9982314109802246,
        -0.9993433356285095,
        -0.9995370507240295
      ],
      "type": "VEC3"
    },
    {
      "bufferView": 1,
      "componentType": 5126,
      "count": 674,
      "max": [
        0.9991000294685364,
        0.9918000102043152
      ],
      "min": [
        0.0008900000248104334,
        0.0009500000160187483
      ],
      "type": "VEC2"
    },
    {
      "bufferView": 0,
      "componentType": 5125,
      "count": 3888,
      "type": "SCALAR"
    },
    {
      "bufferView": 2,
      "byteOffset": 16176,
      "componentType": 5126,
      "count": 1246,
      "max": [
        0.26951101422309875,
        -0.15599699318408966,
        1.0315539836883545
      ],
      "min": [
        -0.26951101422309875,
        -0.3255529999732971,
        0.8636519908905029
      ],
      "type": "VEC3"
    },
    {
      "bufferView": 2,
      "byteOffset": 31128,
      "componentType": 5126,
      "count": 1246,
      "max": [
        0.9981801509857178,
        0.999108612537384,
        0.9987553358078003
      ],
      "min": [
        -0.9981801509857178,
        -0.9993693828582764,
        -0.9987553358078003
      ],
      "type": "VEC3"
    },
    {
      "bufferView": 1,
      "byteOffset": 5392,
      "componentType": 5126,
      "count": 1246,
      "max": [
        1.0,
        1.0
      ],
      "min": [
        0.0,
        0.0
      ],
      "type": "VEC2"
    },
    {
      "bufferView": 0,
      "byteOffset": 15552,
      "componentType": 5125,
      "count": 6624,
      "type": "SCALAR"
    },
    {
      "bufferView": 2,
      "byteOffset": 46080,
      "componentType": 5126,
      "count": 65532,
      "max": [
        0.412445992231369,
        0.5283719897270203,
        0.6539440155029297
      ],
      "min": [
        -0.4124560058116913,
        -0.4177449941635132,
        0.1525620073080063
      ],
      "type": "VEC3"
    },
    {
      "bufferView": 2,
      "byteOffset": 832464,
      "componentType": 5126,
      "count": 65532,
      "max": [
        0.9999997615814209,
        0.9999772310256958,
        0.9999592304229736
      ],
      "min": [
        -0.9999997615814209,
        -0.9999932050704956,
        -0.9999971389770508
      ],
      "type": "VEC3"
    },
    {
      "bufferView": 3,
      "componentType": 5126,
      "count": 65532,
      "max": [
        0.9999993443489075,
        0.9999165534973145,
        0.9999966025352478,
        1.0
      ],
      "min": [
        -0.99998539686203,
        -0.9999526739120483,
        -0.9999476671218872,
        -1.0
      ],
      "type": "VEC4"
    },
    {
      "bufferView": 1,
      "byteOffset": 15360,
      "componentType": 5126,
      "count": 65532,
      "max": [
        0.9892209768295288,
        0.9897710084915161
      ],
      "min": [
        0.002950000111013651,
        0.002950000111013651
      ],
      "type": "VEC2"
    },
    {
      "bufferView": 0,
      "byteOffset": 42048,
      "componentType": 5125,
      "count": 371643,
      "type": "SCALAR"
    },
    {
      "bufferView": 2,
      "byteOffset": 1618848,
      "componentType": 5126,
      "count": 27420,
      "max": [
        0.40342798829078674,
        0.5049459934234619,
        0.6534199714660645
      ],
      "min": [
        -0.3984130024909973,
        -0.43387898802757263,
        0.1448349952697754
      ],
      "type": "VEC3"
    },
    {
      "bufferView": 2,
      "byteOffset": 1947888,
      "componentType": 5126,
      "count": 27420,
      "max": [
        0.9999997615814209,
        0.9999635219573975,
        0.999684751033783
      ],
      "min": [
        -0.9998365044593811,
        -0.999990701675415,
        -0.9999971389770508
      ],
      "type": "VEC3"
    },
    {
      "bufferView": 3,
      "byteOffset": 1048512,
      "componentType": 5126,
      "count": 27420,
      "max": [
        0.999998927116394,
        0.9988669753074646,
        0.9999423027038574,
        1.0
      ],
      "min": [
        -0.9999935030937195,
        -0.9997544884681702,
        -0.9993119835853577,
        -1.0
      ],
      "type": "VEC4"
    },
    {
      "bufferView": 1,
      "byteOffset": 539616,
      "componentType": 5126,
      "count": 27420,
      "max": [
        0.9882649779319763,
        0.9735450148582458
      ],
      "min": [
        0.2507379949092865,
        0.002950000111013651
      ],
      "type": "VEC2"
    },
    {
      "bufferView": 0,
      "byteOffset": 1528620,
      "componentType": 5125,
      "count": 152757,
      "type": "SCALAR"
    },
    {
      "bufferView": 2,
      "byteOffset": 2276928,
      "componentType": 5126,
      "count": 3969,
      "max": [
        0.3982509970664978,
        0.40027400851249695,
        0.26284900307655334
      ],
      "min": [
        -0.3982509970664978,
        -0.39622798562049866,
        0.0052640000358223915
      ],
      "type": "VEC3"
    },
    {
      "bufferView": 2,
      "byteOffset": 2324556,
      "componentType": 5126,
      "count": 3969,
      "max": [
        0.9866602420806885,
        0.986641526222229,
        -0.16279344260692596
      ],
      "min": [
        -0.9866602420806885,
        -0.9866602420806885,
        -1.0
      ],
      "type": "VEC3"
    },
    {
      "bufferView": 1,
      "byteOffset": 758976,
      "componentType": 5126,
      "count": 3969,
      "max": [
        0.9379289746284485,
        0.9494580030441284
      ],
      "min": [
        0.05892900004982948,
        0.07043600082397461
      ],
      "type": "VEC2"
    },
    {
      "bufferView": 0,
      "byteOffset": 2139648,
      "componentType": 5125,
      "count": 23424,
      "type": "SCALAR"
    },
    {
      "bufferView": 2,
      "byteOffset": 2372184,
      "componentType": 5126,
      "count": 1152,
      "max": [
        0.24362100660800934,
        -0.26006799936294556,
        0.4899280071258545
      ],
      "min": [
        -0.24362100660800934,
        -0.3585200011730194,
        0.2695780098438263
      ],
      "type": "VEC3"
    },
    {
      "bufferView": 2,
      "byteOffset": 2386008,
      "componentType": 5126,
      "count": 1152,
      "max": [
        0.9996288418769836,
        0.9958769679069519,
        0.9903091192245483
      ],
      "min": [
        -0.9996288418769836,
        -0.9892957806587219,
        -0.9682683348655701
      ],
      "type": "VEC3"
    },
    {
      "bufferView": 3,
      "byteOffset": 1487232,
      "componentType": 5126,
      "count": 1152,
      "max": [
        0.9991170167922974,
        0.999913215637207,
        0.9830106496810913,
        1.0
      ],
      "min": [
        -0.9991170167922974,
        -0.9965918660163879,
        -0.9402375221252441,
        -1.0
      ],
      "type": "VEC4"
    },
    {
      "bufferView": 1,
      "byteOffset": 790728,
      "componentType": 5126,
      "count": 1152,
      "max": [
        0.9921879768371582,
        0.9845520257949829
      ],
      "min": [
        0.0078119998797774315,
        0.0078119998797774315
      ],
      "type": "VEC2"
    },
    {
      "bufferView": 0,
      "byteOffset": 2233344,
      "componentType": 5125,
      "count": 5712,
      "type": "SCALAR"
    },
    {
      "bufferView": 2,
      "byteOffset": 2399832,
      "componentType": 5126,
      "count": 6823,
      "max": [
        0.4229480028152466,
        0.48804500699043274,
        1.7641429901123047
      ],
      "min": [
        -0.4156399965286255,
        -0.3321419954299927,
        1.072909951210022
      ],
      "type": "VEC3"
    },
    {
      "bufferView": 2,
      "byteOffset": 2481708,
      "componentType": 5126,
      "count": 6823,
      "max": [
        1.0,
        0.9999887943267822,
        0.9999955892562866
      ],
      "min": [
        -1.0,
        -0.9992696046829224,
        -0.9999955892562866
      ],
      "type": "VEC3"
    },
    {
      "bufferView": 3,
      "byteOffset": 1505664,
      "componentType": 5126,
      "count": 6823,
      "max": [
        0.9999800324440002,
        0.9970434904098511,
        0.9975458979606628,
        1.0
      ],
      "min": [
        -0.9999527931213379,
        -0.9987104535102844,
        -0.9995083808898926,
        -1.0
      ],
      "type": "VEC4"
    },
    {
      "bufferView": 1,
      "byteOffset": 799944,
      "componentType": 5126,
      "count": 6823,
      "max": [
        0.9878249764442444,
        0.9513360261917114
      ],
      "min": [
        0.0029849999118596315,
        0.0030990000814199448
      ],
      "type": "VEC2"
    },
    {
      "bufferView": 0,
      "byteOffset": 2256192,
      "componentType": 5125,
      "count": 38220,
      "type": "SCALAR"
    },
    {
      "bufferView": 2,
      "byteOffset": 2563584,
      "componentType": 5126,
      "count": 24775,
      "max": [
        0.6342589855194092,
        0.34675800800323486,
        1.2466870546340942
      ],
      "min": [
        -0.6342660188674927,
        -0.411965012550354,
        0.20615200698375702
      ],
      "type": "VEC3"
    },
    {
      "bufferView": 2,
      "byteOffset": 2860884,
      "componentType": 5126,
      "count": 24775,
      "max": [
        0.9999333620071411,
        0.9999998807907104,
        1.0
      ],
      "min": [
        -0.9999333620071411,
        -0.9988665580749512,
        -0.9999994039535522
      ],
      "type": "VEC3"
    },
    {
      "bufferView": 3,
      "byteOffset": 1614832,
      "componentType": 5126,
      "count": 24775,
      "max": [
        0.9999980330467224,
        0.9999913573265076,
        0.9999819397926331,
        1.0
      ],
      "min": [
        -0.9999999403953552,
        -0.999988853931427,
        -0.9987914562225342,
        1.0
      ],
      "type": "VEC4"
    },
    {
      "bufferView": 1,
      "byteOffset": 854528,
      "componentType": 5126,
      "count": 24775,
      "max": [
        0.9944739937782288,
        0.9968559741973877
      ],
      "min": [
        0.005814000032842159,
        0.005814000032842159
      ],
      "type": "VEC2"
    },
    {
      "bufferView": 0,
      "byteOffset": 2409072,
      "componentType": 5125,
      "count": 145350,
      "type": "SCALAR"
    }
  ],
  "asset": {
    "extras": {
      "author": "morepolys (https://sketchfab.com/morepolys)",
      "license": "CC-BY-4.0 (http://creativecommons.org/licenses/by/4.0/)",
      "source": "https://sketchfab.com/3d-models/overcooked-pug-character-564000f4aa2840e68fdeb339b8e7abce",
      "title": "Overcooked! - Pug Character"
    },
    "generator": "Sketchfab-12.59.0",
    "version": "2.0"
  },
  "bufferViews": [
    {
      "buffer": 0,
      "byteLength": 2990472,
      "name": "floatBufferViews",
      "target": 34963
    },
    {
      "buffer": 0,
      "byteLength": 1052728,
      "byteOffset": 2990472,
      "byteStride": 8,
      "name": "floatBufferViews",
      "target": 34962
    },
    {
      "buffer": 0,
      "byteLength": 3158184,
      "byteOffset": 4043200,
      "byteStride": 12,
      "name": "floatBufferViews",
      "target": 34962
    },
    {
      "buffer": 0,
      "byteLength": 2011232,
      "byteOffset": 7201384,
      "byteStride": 16,
      "name": "floatBufferViews",
      "target": 34962
    }
  ],
  "buffers": [
    {
      "byteLength": 9212616,
      "uri": "scene.bin"
    }
  ],
  "images": [
    {
      "uri": "textures/aiEyes_baseColor.png"
    },
    {
      "uri": "textures/body_m_baseColor.png"
    },
    {
      "uri": "textures/body_m_metallicRoughness.png"
    },
    {
      "uri": "textures/body_m_normal.png"
    },
    {
      "uri": "textures/bottom_m_baseColor.png"
    },
    {
      "uri": "textures/buttons_m_baseColor.png"
    },
    {
      "uri": "textures/buttons_m_metallicRoughness.png"
    },
    {
      "uri": "textures/buttons_m_normal.png"
    },
    {
      "uri": "textures/hat_m_baseColor.png"
    },
    {
      "uri": "textures/hat_m_metallicRoughness.png"
    },
    {
      "uri": "textures/hat_m_normal.png"
    },
    {
      "uri": "textures/head_m_baseColor.png"
    },
    {
      "uri": "textures/head_m_metallicRoughness.png"
    },
    {
      "uri": "textures/head_m_normal.png"
    }
  ],
  "materials": [
    {
      "doubleSided": true,
      "name": "aiEyes",
      "pbrMetallicRoughness": {
        "baseColorTexture": {
          "index": 0
        },
        "metallicFactor": 0.0,
        "roughnessFactor": 0.45772303595206393
      }
    },
    {
      "alphaMode": "BLEND",
      "doubleSided": true,
      "name": "ailens",
      "pbrMetallicRoughness": {
        "baseColorFactor": [
          0.026030741355513805,
          0.026030741355513805,
          0.026030741355513805,
          0.42732217013540547
        ],
        "baseColorTexture": {
          "index": 0
        },
        "metallicFactor": 0.0,
        "roughnessFactor": 0.019950568192182112
      }
    },
    {
      "doubleSided": true,
      "name": "body_m",
      "normalTexture": {
        "index": 3
      },
      "pbrMetallicRoughness": {
        "baseColorTexture": {
          "index": 1
        },
        "metallicFactor": 0.0,
        "metallicRoughnessTexture": {
          "index": 2
        }
      }
    },
    {
      "doubleSided": true,
      "name": "bottom_m",
      "pbrMetallicRoughness": {
        "baseColorTexture": {
          "index": 4
        },
        "metallicFactor": 0.0,
        "roughnessFactor": 0.9137360232019408
      }
    },
    {
      "doubleSided": true,
      "name": "buttons_m",
      "normalTexture": {
        "index": 7
      },
      "pbrMetallicRoughness": {
        "baseColorTexture": {
          "index": 5
        },
        "metallicFactor": 0.0,
        "metallicRoughnessTexture": {
          "index": 6
        }
      }
    },
    {
      "doubleSided": true,
      "name": "hat_m",
      "normalTexture": {
        "index": 10
      },
      "pbrMetallicRoughness": {
        "baseColorTexture": {
          "index": 8
        },
        "metallicFactor": 0.0,
        "metallicRoughnessTexture": {
          "index": 9
        }
      }
    },
    {
      "doubleSided": true,
      "name": "head_m",
      "normalTexture": {
        "index": 13
      },
      "pbrMetallicRoughness": {
        "baseColorTexture": {
          "index": 11
        },
        "metallicFactor": 0.0,
        "metallicRoughnessTexture": {
          "index": 12
        }
      }
    }
  ],
  "meshes": [
    {
      "name": "Object_0",
      "primitives": [
        {
          "attributes": {
            "NORMAL": 1,
            "POSITION": 0,
            "TEXCOORD_0": 2
          },
          "indices": 3,
          "material": 0,
          "mode": 4
        }
      ]
    },
    {
      "name": "Object_1",
      "primitives": [
        {
          "attributes": {
            "NORMAL": 5,
            "POSITION": 4,
            "TEXCOORD_0": 6
          },
          "indices": 7,
          "material": 1,
          "mode": 4
        }
      ]
    },
    {
      "name": "Object_2",
      "primitives": [
        {
          "attributes": {
            "NORMAL": 9,
            "POSITION": 8,
            "TANGENT": 10,
            "TEXCOORD_0": 11
          },
          "indices": 12,
          "material": 2,
          "mode": 4
        }
      ]
    },
    {
      "name": "Object_3",
      "primitives": [
        {
          "attributes": {
            "NORMAL": 14,
            "POSITION": 13,
            "TANGENT": 15,
            "TEXCOORD_0": 16
          },
          "indices": 17,
          "material": 2,
          "mode": 4
        }
      ]
    },
    {
      "name": "Object_4",
      "primitives": [
        {
          "attributes": {
            "NORMAL": 19,
            "POSITION": 18,
            "TEXCOORD_0": 20
          },
          "indices": 21,
          "material": 3,
          "mode": 4
        }
      ]
    },
    {
      "name": "Object_5",
      "primitives": [
        {
          "attributes": {
            "NORMAL": 23,
            "POSITION": 22,
            "TANGENT": 24,
            "TEXCOORD_0": 25
          },
          "indices": 26,
          "material": 4,
          "mode": 4
        }
      ]
    },
    {
      "name": "Object_6",
      "primitives": [
        {
          "attributes": {
            "NORMAL": 28,
            "POSITION": 27,
            "TANGENT": 29,
            "TEXCOORD_0": 30
          },
          "indices": 31,
          "material": 5,
          "mode": 4
        }
      ]
    },
    {
      "name": "Object_7",
      "primitives": [
        {
          "attributes": {
            "NORMAL": 33,
            "POSITION": 32,
            "TANGENT": 34,
            "TEXCOORD_0": 35
          },
          "indices": 36,
          "material": 6,
          "mode": 4
        }
      ]
    }
  ],
  "nodes": [
    {
      "children": [
        1
      ],
      "matrix": [
        1.0,
        0.0,
        0.0,
        0.0,
        0.0,
        2.220446049250313e-16,
        -1.0,
        0.0,
        0.0,
        1.0,
        2.220446049250313e-16,
        0.0,
        0.0,
        0.0,
        0.0,
        1.0
      ],
      "name": "Sketchfab_model"
    },
    {
      "children": [
        2,
        3,
        4,
        5,
        6,
        7,
        8,
        9
      ],
      "name": "pug.obj.cleaner.materialmerger.gles"
    },
    {
      "mesh": 0,
      "name": "Object_2"
    },
    {
      "mesh": 1,
      "name": "Object_3"
    },
    {
      "mesh": 2,
      "name": "Object_4"
    },
    {
      "mesh": 3,
      "name": "Object_5"
    },
    {
      "mesh": 4,
      "name": "Object_6"
    },
    {
      "mesh": 5,
      "name": "Object_7"
    },
    {
      "mesh": 6,
      "name": "Object_8"
    },
    {
      "mesh": 7,
      "name": "Object_9"
    }
  ],
  "samplers": [
    {
      "magFilter": 9729,
      "minFilter": 9987,
      "wrapS": 10497,
      "wrapT": 10497
    }
  ],
  "scene": 0,
  "scenes": [
    {
      "name": "Sketchfab_Scene",
      "nodes": [
        0
      ]
    }
  ],
  "textures": [
    {
      "sampler": 0,
      "source": 0
    },
    {
      "sampler": 0,
      "source": 1
    },
    {
      "sampler": 0,
      "source": 2
    },
    {
      "sampler": 0,
      "source": 3
    },
    {
      "sampler": 0,
      "source": 4
    },
    {
      "sampler": 0,
      "source": 5
    },
    {
      "sampler": 0,
      "source": 6
    },
    {
      "sampler": 0,
      "source": 7
    },
    {
      "sampler": 0,
      "source": 8
    },
    {
      "sampler": 0,
      "source": 9
    },
    {
      "sampler": 0,
      "source": 10
    },
    {
      "sampler": 0,
      "source": 11
    },
    {
      "sampler": 0,
      "source": 12
    },
    {
      "sampler": 0,
      "source": 13
    }
  ]
}
